<?xml version="1.0" encoding="utf-8"?>
<!-- Generator: Adobe Illustrator 16.0.0, SVG Export Plug-In . SVG Version: 6.00 Build 0)  -->
<svg version="1.2" baseProfile="tiny" id="Layer_1" xmlns="http://www.w3.org/2000/svg" xmlns:xlink="http://www.w3.org/1999/xlink"
	 x="0px" y="0px" width="192.589px" height="97.248px" viewBox="0 0 192.589 97.248" xml:space="preserve">
<rect x="21.533" y="33.211" width="43.065" height="31.387"/>
<polygon fill="#414042" points="43.065,0 86.131,24.452 86.131,70.971 43.065,46.519 "/>
<polygon points="0,70.971 43.065,46.519 43.065,0 0,24.452 "/>
<polygon fill="#D1D3D4" points="0,26.277 43.065,50.729 43.065,97.248 0,72.796 "/>
<polygon fill="#F1F2F2" points="43.065,97.248 86.131,72.796 86.131,26.277 43.065,50.729 "/>
<g>
	<path fill="#FFFFFF" d="M96.555,46.8V6.188h10.507c2.511,0,4.691,0.571,6.542,1.713c1.85,1.143,2.775,2.969,2.775,5.48v5.636
		c0,2.851-1.737,4.862-5.211,6.032c3.663,0.906,5.494,2.86,5.494,5.862v7.873c0,2.681-0.874,4.687-2.62,6.018
		c-1.747,1.331-3.828,1.997-6.245,1.997H96.555z M107.968,20.457v-6.928c0-1.419-0.831-2.129-2.492-2.129v11.215
		C107.137,22.614,107.968,21.895,107.968,20.457z M107.968,39.437v-10.28c0-1.416-0.831-2.124-2.492-2.124v14.557
		C107.137,41.589,107.968,40.872,107.968,39.437z"/>
	<path fill="#FFFFFF" d="M126.631,46.8h-8.071V6.188h8.071V46.8z"/>
	<path fill="#FFFFFF" d="M147.503,46.8h-7.137v-1.274c-0.604,1.151-2.332,1.728-5.183,1.728c-4.399,0-6.599-1.718-6.599-5.154V35.5
		c0-1.473,0.533-2.756,1.6-3.852c1.067-1.095,3.215-2.464,6.443-4.106c1.869-0.944,2.804-1.699,2.804-2.266v-4.871
		c0-1.076-0.463-1.614-1.388-1.614c-1.058,0-1.586,1.313-1.586,3.937c0,0.472,0.028,1.171,0.085,2.096
		c0.075,0.925,0.113,1.624,0.113,2.096h-7.788v-6.57c0-4.437,3.21-6.655,9.629-6.655c6.004,0,9.006,2.313,9.006,6.938V46.8z
		 M139.432,40.654v-8.468c-1.851,0.453-2.775,1.284-2.775,2.492v5.976c0,1.001,0.481,1.501,1.444,1.501
		C138.989,42.155,139.432,41.655,139.432,40.654z"/>
	<path fill="#FFFFFF" d="M168.262,28.477h-8.071v-8.071c0-1.076-0.453-1.614-1.359-1.614c-0.925,0-1.388,0.538-1.388,1.614v20.136
		c0,1.114,0.463,1.671,1.388,1.671c0.906,0,1.359-0.557,1.359-1.671v-7.958h8.071v8.015c0,4.437-3.105,6.655-9.317,6.655
		c-6.382,0-9.572-2.313-9.572-6.938V20.632c0-4.625,3.19-6.938,9.572-6.938c6.212,0,9.317,2.219,9.317,6.655V28.477z"/>
	<path fill="#FFFFFF" d="M192.589,46.8h-9.497l-4.918-11.876V46.8h-8.071V6.188h8.071V24.42l4.115-10.5h8.346l-5.847,14.387
		L192.589,46.8z"/>
	<path fill="#FFFFFF" d="M96.555,88.8V48.188h10.507c2.511,0,4.691,0.571,6.542,1.713c1.85,1.143,2.775,2.97,2.775,5.48v5.636
		c0,2.851-1.737,4.861-5.211,6.032c3.663,0.906,5.494,2.86,5.494,5.862v7.873c0,2.681-0.874,4.687-2.62,6.019
		c-1.747,1.33-3.828,1.996-6.245,1.996H96.555z M107.968,62.456v-6.928c0-1.419-0.831-2.129-2.492-2.129v11.215
		C107.137,64.614,107.968,63.896,107.968,62.456z M107.968,81.437v-10.28c0-1.416-0.831-2.124-2.492-2.124v14.557
		C107.137,83.589,107.968,82.871,107.968,81.437z"/>
	<path fill="#FFFFFF" d="M118.333,82.314V62.632c0-4.625,3.2-6.938,9.601-6.938c2.474,0,4.649,0.538,6.528,1.614
		c1.878,1.076,2.817,2.757,2.817,5.041v20.249c0,4.437-3.115,6.655-9.346,6.655C121.534,89.253,118.333,86.94,118.333,82.314z
		 M129.208,82.541V62.405c0-1.076-0.463-1.614-1.388-1.614c-0.944,0-1.416,0.538-1.416,1.614v20.136
		c0,1.114,0.472,1.671,1.416,1.671C128.746,84.212,129.208,83.655,129.208,82.541z"/>
	<path fill="#FFFFFF" d="M160.531,88.8h-8.893l-2.775-8.921l-2.605,8.921h-8.071l6.315-17.389l-6.146-15.491h8.524l2.747,8.524
		l2.181-8.524h7.675l-5.409,15.888L160.531,88.8z"/>
</g>
</svg>
